<?xml version="1.0" encoding="utf-8"?>
<!-- Generator: Adobe Illustrator 21.0.0, SVG Export Plug-In . SVG Version: 6.00 Build 0)  -->
<svg version="1.1" id="Calque_1" xmlns="http://www.w3.org/2000/svg" xmlns:xlink="http://www.w3.org/1999/xlink" x="0px" y="0px"
	 viewBox="0 0 1200 392" style="enable-background:new 0 0 1200 392;" xml:space="preserve">
<style type="text/css">
	.st0{fill:#FFFFFF;}
</style>
<path class="st0" d="M1097.5,0c-32.4,0-65.3,5.6-115.5,9.2c-69,5-105.4-2.5-157.5-2.5C804.8,6.7,743.8,13,708,13
	c-59.1,0-108-5.5-108-5.5S529.9,0,497.5,0S432.2,5.6,382,9.2c-69,5-105.4-2.5-157.5-2.5C204.8,6.7,143.8,13,108,13
	C48.9,13,0,7.5,0,7.5c0,4.1,0,7.9,0,11.5v30v294v31v10.5c0,0,70.1,7.5,102.5,7.5s65.3-5.6,115.5-9.2c69-5,105.4,2.5,157.5,2.5
	c19.7,0,80.7-6.3,116.5-6.3c59.1,0,108,5.5,108,5.5s70.1,7.5,102.5,7.5s65.3-5.6,115.5-9.2c69-5,105.4,2.5,157.5,2.5
	c19.7,0,80.7-6.3,116.5-6.3c59.1,0,108,5.5,108,5.5c0-3.7,0-7.2,0-10.5v-31V49V19V7.5C1200,7.5,1129.9,0,1097.5,0z"/>
</svg>
